<svg id="svg" version="1.1" class="svg-inline--fa fa-w-20" viewBox="0 0 400 291.2621359223301" xmlns="http://www.w3.org/2000/svg" xmlns:xlink="http://www.w3.org/1999/xlink" ><g id="svgg"><path id="path0" d="M96.096 11.966 C 88.126 13.136,81.353 21.374,78.866 32.921 C 77.795 37.895,78.232 53.104,79.566 57.276 L 80.135 59.053 83.769 60.579 C 91.539 63.842,95.511 67.554,96.405 72.389 C 97.411 77.829,95.875 86.676,92.500 94.888 C 90.501 99.752,90.427 100.096,90.986 101.874 C 92.690 107.284,90.809 122.707,87.570 129.880 C 86.613 131.999,86.525 132.421,86.520 134.924 C 86.508 140.215,84.727 150.622,83.321 153.613 C 81.263 157.992,73.688 160.944,64.530 160.936 C 54.251 160.928,52.103 159.385,51.657 151.688 C 51.415 147.509,52.513 147.912,35.251 145.675 C 28.585 144.811,26.562 144.021,28.096 142.882 C 30.396 141.174,57.330 144.275,66.098 147.257 C 70.519 148.761,72.346 151.121,69.503 151.654 C 68.425 151.856,67.670 151.706,60.789 149.919 C 54.660 148.326,54.564 148.369,55.755 152.188 C 56.779 155.472,57.212 155.726,62.345 156.054 C 69.930 156.539,77.635 153.926,78.945 150.424 C 80.549 146.135,81.952 131.964,80.999 129.665 C 80.549 128.577,78.921 127.520,74.497 125.441 C 54.103 115.861,32.453 113.731,19.095 119.990 C 15.789 121.539,15.589 122.202,15.169 132.936 C 14.933 138.976,14.604 140.395,13.979 138.074 C 13.542 136.450,13.556 128.876,14.000 126.323 C 14.235 124.977,14.249 124.256,14.045 124.052 C 12.458 122.465,11.084 141.162,12.521 144.792 C 16.503 154.848,55.146 170.752,76.778 171.239 C 98.417 171.725,105.688 162.835,105.084 136.628 C 104.889 128.176,104.899 128.235,103.623 128.291 C 102.868 128.324,102.677 128.210,102.602 127.679 C 102.480 126.823,103.751 126.156,104.430 126.719 C 104.952 127.152,106.240 126.903,106.995 126.222 C 108.524 124.844,110.122 113.846,110.123 104.690 C 110.124 95.316,108.109 88.420,102.905 79.995 C 97.986 72.032,96.764 64.457,98.481 52.586 C 100.206 40.664,106.259 24.934,112.072 17.271 C 112.963 16.097,113.623 14.942,113.567 14.653 C 113.149 12.480,103.110 10.936,96.096 11.966 M329.842 46.540 C 329.946 47.092,333.093 48.922,333.961 48.936 C 335.142 48.954,334.367 47.664,332.702 46.841 C 330.802 45.902,329.700 45.786,329.842 46.540 M327.749 48.304 C 327.509 48.387,325.805 49.859,323.962 51.574 C 320.240 55.038,319.422 55.751,308.981 64.616 C 296.124 75.532,289.171 80.576,282.697 83.682 L 280.192 84.884 277.241 84.520 C 246.017 80.667,202.118 67.056,179.730 54.286 L 177.815 53.194 174.198 55.259 C 169.638 57.862,169.903 57.434,167.826 65.550 C 159.098 99.657,155.053 126.991,153.211 164.312 C 152.182 185.171,153.510 214.465,156.154 229.218 C 156.538 231.361,156.443 231.255,160.819 234.443 C 162.980 236.018,165.173 237.621,165.692 238.006 L 166.636 238.706 170.645 238.217 C 201.152 234.496,232.189 236.383,268.609 244.173 C 296.385 250.114,328.070 260.883,354.185 273.257 L 358.625 275.361 363.902 272.713 C 366.805 271.257,369.340 270.066,369.535 270.066 C 371.988 270.066,378.980 247.605,383.367 225.637 C 387.973 202.568,388.887 193.142,390.382 153.241 C 390.953 138.013,390.629 118.571,389.650 109.250 C 389.360 106.493,389.265 106.330,385.923 102.870 C 384.127 101.011,381.488 98.134,380.058 96.476 C 377.169 93.126,376.855 92.935,374.242 92.935 C 373.235 92.935,369.671 92.749,366.322 92.521 C 362.973 92.293,357.808 91.956,354.843 91.772 C 345.463 91.190,335.524 89.797,335.226 89.021 C 335.148 88.817,335.198 86.435,335.337 83.728 C 336.342 64.229,336.308 54.949,335.225 52.362 C 334.689 51.083,328.862 47.920,327.749 48.304 M173.052 52.313 C 171.184 53.367,170.200 55.062,171.457 55.062 C 172.024 55.062,175.859 53.138,176.114 52.726 C 176.836 51.557,174.862 51.291,173.052 52.313 M42.389 59.919 C 34.962 60.382,26.808 62.181,25.457 63.654 C 24.411 64.795,23.812 70.721,23.934 78.723 C 24.059 86.947,23.758 86.437,28.142 85.829 C 48.271 83.037,71.545 86.544,83.059 94.104 C 86.534 96.386,86.240 96.471,87.669 92.755 C 90.512 85.359,91.898 76.796,90.870 72.979 C 88.816 65.357,63.696 58.590,42.389 59.919 M21.401 65.672 C 19.837 68.060,19.289 86.008,20.752 86.927 C 21.909 87.654,22.247 86.601,22.116 82.681 C 21.917 76.746,22.119 70.502,22.592 67.944 C 22.837 66.616,22.959 65.404,22.864 65.249 C 22.556 64.751,21.876 64.948,21.401 65.672 M17.524 68.973 C 16.864 70.232,16.515 74.230,16.489 80.845 L 16.460 87.837 17.236 87.927 C 18.289 88.048,18.462 87.371,18.079 84.620 C 17.535 80.704,17.759 73.046,18.529 69.264 C 18.719 68.331,17.974 68.115,17.524 68.973 M32.432 90.897 C 29.306 91.223,23.352 92.239,22.359 92.616 C 20.603 93.284,18.645 102.463,18.645 110.025 C 18.645 114.026,18.637 114.018,21.850 113.037 C 37.815 108.165,60.533 111.826,80.573 122.500 C 82.465 123.507,83.644 123.977,83.895 123.822 C 85.342 122.928,86.634 105.455,85.397 103.511 C 84.441 102.008,79.501 98.331,76.184 96.652 C 67.489 92.252,46.250 89.458,32.432 90.897 M114.979 91.964 C 114.663 92.281,114.758 93.374,115.135 93.751 C 115.644 94.261,116.813 94.178,117.028 93.618 C 117.313 92.875,115.517 91.426,114.979 91.964 M380.007 93.655 C 379.809 94.171,380.015 94.439,384.232 99.124 C 388.148 103.475,389.264 104.150,388.812 101.892 C 388.372 99.692,380.512 92.339,380.007 93.655 M385.193 93.996 C 385.302 94.546,386.190 95.189,386.463 94.916 C 386.563 94.816,386.500 94.460,386.321 94.125 C 385.934 93.402,385.057 93.302,385.193 93.996 M17.785 94.230 C 16.146 96.204,14.230 114.451,15.606 114.979 C 16.518 115.329,16.669 114.574,16.735 109.349 C 16.802 103.960,17.264 100.431,18.360 96.935 C 19.217 94.201,18.930 92.850,17.785 94.230 M116.679 95.571 C 115.373 96.410,115.547 96.888,117.116 96.769 C 118.681 96.651,119.124 96.326,118.680 95.622 C 118.243 94.928,117.702 94.914,116.679 95.571 M13.919 96.643 C 11.979 98.826,10.722 110.563,11.882 115.659 C 12.317 117.568,12.968 116.935,12.932 114.639 C 12.872 110.843,13.435 104.170,14.136 100.367 C 14.834 96.581,14.781 95.673,13.919 96.643 M118.440 97.284 C 118.348 97.432,117.783 97.709,117.185 97.899 C 115.482 98.438,115.368 98.746,115.364 102.823 C 115.352 114.757,113.164 127.073,110.640 129.410 L 109.475 130.488 109.990 133.198 C 111.219 139.667,110.467 150.244,108.225 158.027 C 107.417 160.829,107.456 160.952,109.348 161.563 C 112.553 162.600,112.338 163.887,109.105 163.012 C 107.024 162.449,106.045 162.774,106.045 164.030 C 106.045 164.901,109.529 166.069,112.454 166.178 C 113.706 166.225,115.395 162.504,118.121 153.696 C 124.472 133.171,125.507 111.434,120.703 99.434 C 119.912 97.458,118.917 96.512,118.440 97.284 M249.011 103.715 C 252.412 104.157,254.717 105.797,253.847 107.157 C 253.568 107.592,252.958 107.637,248.470 107.559 C 238.572 107.387,230.615 108.829,222.969 112.180 C 220.216 113.387,218.540 111.632,220.304 109.390 C 223.053 105.895,240.002 102.545,249.011 103.715 M286.963 109.098 C 295.687 110.051,311.441 118.237,312.181 122.203 C 312.300 122.838,312.672 123.584,313.008 123.860 C 313.500 124.264,313.557 124.466,313.299 124.891 C 312.841 125.644,311.818 125.731,311.597 125.035 C 311.462 124.610,311.076 124.439,310.022 124.338 C 308.871 124.227,308.145 123.857,305.879 122.230 C 300.992 118.720,292.303 114.719,285.822 112.996 C 281.652 111.887,281.428 111.771,281.428 110.732 C 281.428 109.493,283.065 108.565,284.778 108.832 C 285.098 108.882,286.082 109.002,286.963 109.098 M242.177 110.765 C 243.677 111.214,246.128 113.457,247.129 115.297 C 251.154 122.691,248.424 140.672,242.082 148.543 C 240.396 150.634,240.353 150.879,241.515 151.738 C 243.655 153.320,242.129 154.177,238.878 153.218 C 237.215 152.727,235.823 152.563,232.921 152.513 C 230.838 152.477,228.904 152.429,228.623 152.407 C 227.841 152.346,228.017 151.474,228.979 150.640 L 229.845 149.891 228.989 148.143 C 226.439 142.933,226.241 133.920,228.451 123.525 C 230.294 114.853,236.516 109.069,242.177 110.765 M219.245 112.003 C 219.855 112.933,219.556 113.979,218.716 113.855 C 218.061 113.758,217.456 112.442,217.735 111.717 C 217.984 111.066,218.723 111.206,219.245 112.003 M235.898 117.171 C 233.785 117.743,231.920 120.419,231.907 122.898 C 231.883 127.781,237.616 128.607,239.888 124.049 C 241.914 119.983,239.688 116.146,235.898 117.171 M291.196 118.733 C 297.170 120.289,299.912 125.375,299.907 134.887 C 299.901 144.411,298.001 151.174,294.106 155.540 C 292.524 157.313,292.483 157.399,292.920 158.066 C 294.305 160.180,293.588 160.370,286.380 159.796 C 278.628 159.179,277.597 158.855,279.654 157.684 C 280.800 157.032,280.783 156.660,279.536 155.204 C 276.145 151.243,275.946 143.038,278.923 129.971 C 280.239 124.198,283.486 119.999,287.640 118.701 C 289.220 118.206,289.174 118.206,291.196 118.733 M285.596 125.108 C 283.297 126.132,281.808 129.896,282.850 132.049 C 284.574 135.611,289.018 134.729,290.419 130.546 C 291.642 126.892,288.796 123.683,285.596 125.108 M240.143 127.636 C 239.681 128.097,240.007 128.769,240.692 128.769 C 241.114 128.769,241.240 128.602,241.171 128.136 C 241.061 127.392,240.608 127.171,240.143 127.636 M290.569 134.437 C 290.308 135.118,290.855 135.609,291.291 135.084 C 291.555 134.765,291.534 134.592,291.194 134.310 C 290.838 134.014,290.722 134.038,290.569 134.437 M26.074 143.190 C 26.074 144.058,24.937 143.971,24.813 143.094 C 24.733 142.529,24.831 142.431,25.395 142.511 C 25.848 142.575,26.074 142.802,26.074 143.190 M73.096 151.546 C 72.913 151.889,72.612 152.053,72.350 151.953 C 72.109 151.860,71.857 151.784,71.790 151.784 C 71.437 151.784,71.739 150.899,72.175 150.656 C 72.920 150.238,73.498 150.796,73.096 151.546 M195.047 155.135 C 195.047 155.872,194.934 156.009,194.323 156.009 C 193.571 156.009,193.241 155.359,193.565 154.515 C 193.888 153.672,195.047 154.157,195.047 155.135 M201.471 158.818 C 230.612 175.521,263.630 181.600,290.607 175.230 C 293.874 174.459,303.127 171.406,310.357 168.715 C 326.321 162.773,336.039 161.906,344.141 165.703 C 349.206 168.077,349.608 170.334,344.938 170.189 C 341.183 170.072,341.219 170.011,342.192 174.812 C 346.148 194.345,337.179 218.313,321.568 229.928 C 320.491 230.729,319.271 231.830,318.856 232.374 C 315.215 237.148,290.918 239.350,277.058 236.162 C 260.003 232.240,251.436 227.973,227.822 211.635 C 213.564 201.770,205.809 197.875,197.313 196.313 C 192.517 195.430,192.411 195.473,191.224 198.781 C 189.924 202.402,188.790 203.350,187.483 201.905 C 186.724 201.066,187.201 193.569,188.091 192.352 C 189.825 189.979,195.924 189.590,202.857 191.410 C 205.393 192.076,205.577 191.998,206.154 190.015 C 206.615 188.428,206.611 188.370,205.935 187.060 C 205.265 185.763,205.241 185.468,205.099 176.874 L 204.953 168.023 204.226 167.551 C 199.913 164.751,195.097 160.386,194.737 158.952 C 193.841 155.379,195.416 155.348,201.471 158.818 M104.030 167.180 C 103.464 168.237,104.720 168.757,108.214 168.913 C 114.038 169.172,112.195 167.662,105.564 166.741 C 104.539 166.599,104.305 166.666,104.030 167.180 M350.888 169.937 C 351.318 170.619,350.753 171.449,349.859 171.449 C 348.993 171.449,348.764 170.432,349.472 169.725 C 350.028 169.169,350.443 169.231,350.888 169.937 M208.764 171.231 C 208.676 171.511,208.729 173.445,208.882 175.528 C 209.035 177.611,209.164 180.260,209.168 181.414 C 209.182 184.753,209.820 185.384,215.586 187.762 C 222.302 190.532,222.870 190.316,223.742 184.659 C 224.046 182.681,224.527 180.441,224.811 179.680 C 225.486 177.866,225.519 177.894,219.988 175.522 C 217.522 174.464,214.215 172.951,212.638 172.160 C 209.502 170.587,209.005 170.467,208.764 171.231 M314.639 174.929 C 313.918 175.132,310.641 176.289,307.356 177.502 C 300.517 180.026,294.027 182.076,290.507 182.826 C 287.398 183.488,287.418 183.452,286.996 189.221 C 286.808 191.784,286.510 195.031,286.333 196.435 L 286.012 198.988 287.052 200.555 L 288.092 202.122 290.083 202.322 C 294.146 202.730,303.623 202.118,313.469 200.812 C 318.843 200.098,318.634 200.475,319.591 189.803 C 320.376 181.051,320.980 177.839,321.643 178.887 C 322.150 179.689,321.489 190.560,320.595 196.113 C 320.137 198.962,321.333 199.498,326.366 198.698 C 333.576 197.552,336.494 196.147,337.085 193.539 C 338.263 188.348,338.430 178.270,337.360 176.981 C 335.362 174.573,326.213 174.245,322.711 176.456 L 321.523 177.206 320.989 176.513 C 319.451 174.518,319.433 174.507,317.648 174.534 C 316.714 174.549,315.361 174.726,314.639 174.929 M226.147 178.489 C 225.905 178.586,225.780 179.333,225.773 180.723 C 225.768 181.872,225.636 183.729,225.481 184.851 C 224.519 191.767,224.078 191.147,231.464 193.257 C 244.280 196.919,245.768 197.132,247.572 195.556 L 248.822 194.465 249.340 189.803 C 250.033 183.570,250.486 184.183,244.251 182.927 C 238.676 181.803,233.992 180.603,229.630 179.179 C 226.816 178.261,226.745 178.247,226.147 178.489 M282.555 184.258 C 281.638 185.175,264.889 185.535,257.134 184.804 C 251.289 184.254,251.124 184.295,251.133 186.290 C 251.135 186.780,250.920 188.961,250.654 191.137 L 250.171 195.092 250.973 196.460 C 251.414 197.213,251.997 197.947,252.269 198.093 C 253.901 198.966,275.971 201.892,280.937 201.893 C 284.043 201.894,284.431 201.282,284.901 195.630 C 285.088 193.387,285.371 190.130,285.530 188.392 C 285.904 184.304,285.842 184.122,284.078 184.122 C 283.315 184.122,282.629 184.183,282.555 184.258 M209.795 190.852 C 208.085 192.687,208.258 192.889,213.987 195.741 C 216.549 197.017,220.310 199.054,222.344 200.268 C 226.521 202.762,226.559 202.773,226.975 201.677 C 227.969 199.064,227.214 196.715,225.140 195.962 C 218.471 193.543,215.347 192.345,213.182 191.379 C 210.184 190.040,210.505 190.090,209.795 190.852 M230.104 198.261 C 228.481 199.142,227.892 203.449,229.238 204.582 C 231.826 206.760,247.753 217.043,248.537 217.043 C 249.355 217.043,249.545 216.432,250.545 210.587 L 251.475 205.150 250.701 203.830 C 249.816 202.319,249.663 202.252,244.574 201.166 C 242.651 200.756,238.833 199.834,236.088 199.118 C 233.344 198.401,231.050 197.820,230.990 197.827 C 230.930 197.833,230.531 198.028,230.104 198.261 M331.023 200.259 C 327.385 201.523,326.107 202.345,325.261 203.964 C 324.710 205.018,324.286 219.082,324.805 219.082 C 326.333 219.082,333.070 207.575,334.987 201.692 C 336.023 198.514,336.033 198.517,331.023 200.259 M254.270 204.007 C 253.337 204.778,253.022 205.547,252.747 207.720 C 252.440 210.140,251.722 214.064,251.231 216.005 C 250.577 218.590,250.684 218.710,256.007 221.349 C 265.762 226.186,274.237 228.518,274.883 226.542 C 275.138 225.761,276.200 216.513,276.473 212.697 C 276.892 206.841,276.242 206.026,270.648 205.389 C 268.966 205.198,264.873 204.660,261.554 204.196 C 254.369 203.189,255.233 203.212,254.270 204.007 M318.427 203.966 C 316.905 204.270,313.365 204.850,310.561 205.256 C 304.206 206.176,304.718 205.992,303.304 207.865 C 302.145 209.400,302.112 209.506,302.116 211.714 C 302.117 212.962,301.899 216.854,301.630 220.362 C 301.061 227.796,300.860 227.234,304.299 227.823 C 307.493 228.369,311.980 227.835,316.920 226.319 C 318.583 225.809,319.144 225.443,320.803 223.786 C 323.110 221.482,322.980 222.133,323.238 211.548 C 323.460 202.438,323.755 202.904,318.427 203.966 M188.732 204.613 C 188.796 204.940,188.630 205.098,188.222 205.098 C 187.890 205.098,187.618 204.924,187.618 204.710 C 187.618 203.818,188.562 203.735,188.732 204.613 M279.360 207.350 L 278.312 208.290 278.114 211.993 C 278.005 214.030,277.588 218.252,277.186 221.375 C 276.284 228.385,275.841 227.753,282.051 228.314 C 290.334 229.061,298.162 228.520,299.035 227.140 C 299.469 226.454,300.294 217.436,300.430 211.895 C 300.559 206.607,300.573 206.613,289.002 206.496 L 280.408 206.409 279.360 207.350 M157.534 234.697 C 157.004 235.228,161.429 238.893,162.600 238.893 C 163.607 238.893,163.163 238.338,160.626 236.424 C 158.088 234.510,157.852 234.379,157.534 234.697 M364.907 273.934 C 362.991 274.931,361.374 275.910,361.314 276.111 C 360.899 277.486,367.922 275.271,368.862 273.729 C 370.110 271.681,369.140 271.731,364.907 273.934 " stroke="none" fill="#f7f7f7" fill-rule="evenodd"></path><path id="path1" d="M89.865 0.861 C 78.871 5.318,71.917 13.904,69.209 26.366 C 68.930 27.647,68.561 29.024,68.389 29.425 C 68.196 29.873,68.024 33.835,67.943 39.731 L 67.811 49.309 65.588 49.119 C 64.365 49.015,62.709 48.809,61.908 48.663 C 59.474 48.217,52.863 47.728,51.819 47.916 C 51.279 48.013,49.199 48.213,47.196 48.359 C 43.099 48.659,37.155 49.370,35.397 49.771 C 26.292 51.846,23.542 52.754,17.626 55.640 C 10.709 59.015,6.892 62.093,5.066 65.767 L 3.943 68.026 3.965 73.125 C 3.985 78.010,4.112 80.530,4.527 84.341 C 4.711 86.029,4.668 86.184,3.278 88.857 C 2.486 90.379,1.426 92.773,0.923 94.177 L 0.008 96.730 0.024 119.377 C 0.033 131.833,0.155 142.549,0.295 143.190 C 1.159 147.127,2.753 151.508,3.836 152.916 C 4.130 153.298,4.370 153.736,4.370 153.888 C 4.370 154.276,5.992 156.567,7.687 158.573 C 10.770 162.222,18.826 167.420,26.556 170.749 C 31.915 173.056,40.384 176.114,42.972 176.676 C 43.452 176.780,44.698 177.114,45.739 177.417 C 49.162 178.412,53.947 179.443,59.432 180.368 C 60.313 180.517,62.673 180.768,64.676 180.926 C 66.679 181.084,69.373 181.343,70.663 181.502 C 73.678 181.874,79.259 181.874,81.786 181.501 C 82.871 181.342,85.200 181.095,86.963 180.953 C 90.960 180.631,95.172 179.711,98.743 178.381 L 101.491 177.357 104.132 178.258 C 116.293 182.405,119.145 181.601,123.638 172.760 C 125.400 169.294,127.369 163.326,129.214 155.863 C 129.630 154.181,130.542 150.903,131.241 148.580 C 131.940 146.256,132.786 143.176,133.122 141.733 C 133.457 140.291,133.854 138.718,134.004 138.237 C 135.143 134.586,134.990 119.357,133.746 112.600 C 133.599 111.799,133.333 110.160,133.156 108.958 C 130.998 94.344,124.550 82.693,118.179 81.898 C 114.606 81.452,110.052 70.116,110.500 62.782 C 110.741 58.845,111.274 54.818,111.845 52.632 C 112.145 51.485,112.479 50.022,112.588 49.381 C 112.697 48.740,113.036 47.429,113.340 46.468 C 113.645 45.506,114.378 43.146,114.969 41.224 C 115.560 39.301,116.211 37.334,116.414 36.854 C 116.618 36.373,117.196 34.931,117.699 33.649 C 118.202 32.367,118.875 30.745,119.195 30.044 C 119.514 29.343,120.017 28.156,120.312 27.406 C 120.608 26.656,121.616 24.542,122.552 22.709 L 124.253 19.376 124.237 15.150 L 124.221 10.925 123.122 8.391 C 121.833 5.420,119.138 2.581,116.053 0.947 L 114.267 0.000 103.091 0.015 L 91.916 0.030 89.865 0.861 M108.476 12.236 C 113.761 13.404,114.364 14.249,112.072 17.271 C 106.259 24.934,100.206 40.664,98.481 52.586 C 96.764 64.457,97.986 72.032,102.905 79.995 C 108.109 88.420,110.124 95.316,110.123 104.690 C 110.122 113.846,108.524 124.844,106.995 126.222 C 106.240 126.903,104.952 127.152,104.430 126.719 C 103.751 126.156,102.480 126.823,102.602 127.679 C 102.677 128.210,102.868 128.324,103.623 128.291 C 104.899 128.235,104.889 128.176,105.084 136.628 C 105.688 162.835,98.417 171.725,76.778 171.239 C 55.146 170.752,16.503 154.848,12.521 144.792 C 11.084 141.162,12.458 122.465,14.045 124.052 C 14.249 124.256,14.235 124.977,14.000 126.323 C 13.556 128.876,13.542 136.450,13.979 138.074 C 14.604 140.395,14.933 138.976,15.169 132.936 C 15.589 122.202,15.789 121.539,19.095 119.990 C 32.453 113.731,54.103 115.861,74.497 125.441 C 78.921 127.520,80.549 128.577,80.999 129.665 C 81.952 131.964,80.549 146.135,78.945 150.424 C 77.635 153.926,69.930 156.539,62.345 156.054 C 57.212 155.726,56.779 155.472,55.755 152.188 C 54.564 148.369,54.660 148.326,60.789 149.919 C 67.670 151.706,68.425 151.856,69.503 151.654 C 72.346 151.121,70.519 148.761,66.098 147.257 C 57.330 144.275,30.396 141.174,28.096 142.882 C 26.562 144.021,28.585 144.811,35.251 145.675 C 52.513 147.912,51.415 147.509,51.657 151.688 C 52.103 159.385,54.251 160.928,64.530 160.936 C 73.688 160.944,81.263 157.992,83.321 153.613 C 84.727 150.622,86.508 140.215,86.520 134.924 C 86.525 132.421,86.613 131.999,87.570 129.880 C 90.809 122.707,92.690 107.284,90.986 101.874 C 90.427 100.096,90.501 99.752,92.500 94.888 C 95.875 86.676,97.411 77.829,96.405 72.389 C 95.511 67.554,91.539 63.842,83.769 60.579 L 80.135 59.053 79.566 57.276 C 78.232 53.104,77.795 37.895,78.866 32.921 C 81.353 21.374,88.126 13.136,96.096 11.966 C 99.363 11.486,105.713 11.625,108.476 12.236 M341.906 14.442 C 340.410 14.990,339.565 15.670,335.898 19.273 C 332.260 22.846,323.735 30.932,321.027 33.377 C 317.660 36.416,309.980 43.077,308.257 44.451 C 307.872 44.759,307.085 45.413,306.509 45.905 C 301.301 50.354,283.838 62.637,282.721 62.637 C 282.656 62.637,281.772 63.145,280.756 63.767 C 276.234 66.535,268.233 70.267,267.162 70.107 C 261.922 69.325,256.896 68.332,250.692 66.852 C 248.929 66.431,246.701 65.902,245.739 65.676 C 244.778 65.449,243.532 65.143,242.972 64.995 C 242.411 64.846,240.706 64.394,239.184 63.989 C 214.987 57.559,182.620 45.453,176.402 40.508 C 172.667 37.537,170.981 37.422,168.240 39.948 C 167.159 40.945,164.330 45.288,164.305 45.989 C 164.302 46.092,163.911 46.963,163.438 47.924 C 162.964 48.886,162.574 49.767,162.570 49.882 C 162.567 49.998,162.251 50.784,161.868 51.630 C 161.485 52.476,160.699 54.438,160.122 55.990 C 159.544 57.543,158.950 59.116,158.800 59.486 C 158.022 61.416,154.658 72.506,153.956 75.455 C 153.746 76.336,153.370 77.779,153.120 78.660 C 152.536 80.718,151.564 84.688,151.052 87.109 C 150.831 88.150,150.459 89.723,150.224 90.605 C 149.988 91.486,149.641 92.993,149.451 93.955 C 149.262 94.916,148.986 96.227,148.839 96.868 C 148.691 97.509,148.381 99.082,148.150 100.364 C 147.918 101.646,147.592 103.350,147.424 104.151 C 147.256 104.953,146.929 106.788,146.697 108.230 C 146.465 109.672,146.136 111.573,145.966 112.454 C 145.797 113.336,145.450 115.630,145.195 117.553 C 144.941 119.476,144.625 121.835,144.493 122.797 C 144.263 124.469,143.518 131.221,143.191 134.596 C 143.105 135.477,142.903 137.247,142.742 138.529 C 142.470 140.690,142.141 145.066,141.571 154.115 C 140.078 177.830,140.618 202.193,143.040 220.393 C 143.827 226.307,144.219 228.956,144.463 230.007 C 144.612 230.648,144.877 231.874,145.052 232.730 C 145.227 233.587,145.652 235.160,145.995 236.226 C 146.338 237.292,146.916 239.082,147.280 240.204 C 147.643 241.326,148.365 243.685,148.883 245.448 C 150.348 250.428,151.189 251.272,154.105 250.687 C 156.373 250.231,158.571 249.984,171.012 248.787 C 183.091 247.624,210.468 247.625,220.685 248.788 C 221.966 248.933,224.654 249.190,226.657 249.358 C 228.660 249.526,230.692 249.732,231.173 249.815 C 232.872 250.109,236.163 250.589,239.184 250.986 C 240.867 251.206,242.899 251.510,243.700 251.660 C 244.501 251.811,246.205 252.087,247.487 252.274 C 248.769 252.462,250.801 252.820,252.003 253.071 C 253.205 253.322,255.237 253.705,256.519 253.922 C 257.800 254.139,259.439 254.452,260.160 254.618 C 260.881 254.783,262.237 255.054,263.173 255.219 C 264.109 255.385,265.617 255.717,266.523 255.958 C 267.430 256.199,269.024 256.574,270.066 256.791 C 272.984 257.400,277.691 258.571,281.865 259.725 C 283.948 260.301,286.176 260.902,286.817 261.061 C 287.903 261.329,290.497 262.089,294.683 263.364 C 295.645 263.657,297.808 264.315,299.490 264.827 C 301.173 265.339,303.205 265.999,304.006 266.294 C 304.807 266.589,305.921 266.958,306.482 267.114 C 309.405 267.929,328.518 274.965,331.100 276.178 C 331.420 276.328,332.535 276.796,333.576 277.218 C 338.472 279.199,341.791 280.581,342.250 280.828 C 342.527 280.977,344.588 281.921,346.832 282.925 C 349.075 283.930,353.880 286.232,357.510 288.042 L 364.110 291.333 367.356 291.333 C 370.596 291.333,370.603 291.331,371.047 290.532 C 375.352 282.770,377.916 277.644,381.064 270.503 C 383.704 264.512,387.392 253.719,389.526 245.739 C 390.040 243.816,390.695 241.391,390.983 240.350 C 391.571 238.215,392.838 232.862,393.326 230.444 C 393.504 229.563,393.775 228.318,393.929 227.677 C 394.082 227.036,394.389 225.528,394.610 224.326 C 394.832 223.125,395.151 221.551,395.321 220.830 C 395.491 220.109,395.830 218.339,396.075 216.897 C 396.321 215.455,396.650 213.620,396.808 212.819 C 396.965 212.017,397.298 209.920,397.547 208.157 C 397.797 206.395,398.124 204.232,398.275 203.350 C 398.576 201.596,399.284 194.845,399.697 189.803 C 400.047 185.525,400.054 107.371,399.704 104.734 C 399.280 101.536,398.563 96.719,398.274 95.120 C 398.128 94.319,397.816 92.549,397.580 91.187 C 396.519 85.079,394.864 80.585,393.511 80.138 C 390.924 79.285,372.773 77.883,359.893 77.543 C 355.860 77.436,352.479 77.267,352.379 77.167 C 352.279 77.067,352.138 70.119,352.066 61.726 C 351.994 53.334,351.820 44.173,351.680 41.369 C 351.234 32.399,350.758 25.818,350.466 24.561 C 350.310 23.890,350.182 22.592,350.182 21.678 C 350.182 16.342,346.207 12.866,341.906 14.442 M332.702 46.841 C 333.837 47.402,334.332 47.824,334.398 48.288 C 334.528 49.209,333.806 49.129,331.684 47.989 C 328.576 46.319,329.511 45.264,332.702 46.841 M332.237 50.056 C 335.519 51.783,335.528 51.804,335.941 58.599 C 336.257 63.808,336.165 67.663,335.337 83.728 C 335.198 86.435,335.148 88.817,335.226 89.021 C 335.524 89.797,345.463 91.190,354.843 91.772 C 357.808 91.956,362.973 92.293,366.322 92.521 C 369.671 92.749,373.235 92.935,374.242 92.935 C 376.855 92.935,377.169 93.126,380.058 96.476 C 381.488 98.134,384.127 101.011,385.923 102.870 C 389.265 106.330,389.360 106.493,389.650 109.250 C 392.127 132.829,389.942 188.734,385.551 214.130 C 380.990 240.508,372.527 270.066,369.535 270.066 C 369.340 270.066,366.805 271.257,363.902 272.713 L 358.625 275.361 354.185 273.257 C 320.422 257.259,281.396 245.298,245.448 239.931 C 217.703 235.789,194.847 235.265,170.645 238.217 L 166.636 238.706 165.692 238.006 C 165.173 237.621,162.980 236.018,160.819 234.443 C 156.443 231.255,156.538 231.361,156.154 229.218 C 150.988 200.389,152.108 149.023,158.797 108.084 C 161.502 91.528,168.593 60.060,170.080 58.014 C 170.355 57.634,172.209 56.394,174.198 55.259 L 177.815 53.194 179.730 54.286 C 202.118 67.056,246.017 80.667,277.241 84.520 L 280.192 84.884 282.697 83.682 C 289.171 80.576,296.124 75.532,308.981 64.616 C 319.422 55.751,320.240 55.038,323.962 51.574 C 328.321 47.516,327.645 47.640,332.237 50.056 M175.954 51.990 C 176.466 52.606,176.155 52.920,173.911 54.049 C 171.644 55.191,171.012 55.297,171.012 54.535 C 171.012 52.889,174.998 50.837,175.954 51.990 M56.695 60.024 C 73.253 61.351,89.385 67.466,90.870 72.979 C 91.898 76.796,90.512 85.359,87.669 92.755 C 86.240 96.471,86.534 96.386,83.059 94.104 C 71.545 86.544,48.271 83.037,28.142 85.829 C 23.758 86.437,24.059 86.947,23.934 78.723 C 23.812 70.721,24.411 64.795,25.457 63.654 C 27.934 60.954,44.404 59.040,56.695 60.024 M22.864 65.249 C 22.959 65.404,22.837 66.616,22.592 67.944 C 22.119 70.502,21.917 76.746,22.116 82.681 C 22.247 86.601,21.909 87.654,20.752 86.927 C 19.289 86.008,19.837 68.060,21.401 65.672 C 21.876 64.948,22.556 64.751,22.864 65.249 M18.529 69.264 C 17.759 73.046,17.535 80.704,18.079 84.620 C 18.462 87.371,18.289 88.048,17.236 87.927 L 16.460 87.837 16.489 80.845 C 16.524 72.143,17.045 68.463,18.242 68.463 C 18.578 68.463,18.650 68.666,18.529 69.264 M58.121 91.731 C 70.858 93.787,76.330 95.869,83.116 101.241 C 86.038 103.555,86.017 103.485,85.822 110.415 C 85.644 116.742,84.697 123.326,83.895 123.822 C 83.644 123.977,82.465 123.507,80.573 122.500 C 60.533 111.826,37.815 108.165,21.850 113.037 C 18.637 114.018,18.645 114.026,18.645 110.025 C 18.645 104.954,19.897 96.978,21.180 93.872 C 21.668 92.690,22.206 92.478,26.597 91.732 C 35.235 90.265,49.032 90.264,58.121 91.731 M116.420 92.452 C 117.345 93.248,117.212 94.101,116.164 94.101 C 115.317 94.101,114.785 93.591,114.785 92.780 C 114.785 91.587,115.296 91.485,116.420 92.452 M381.500 93.763 C 384.304 95.476,389.680 102.342,388.694 102.952 C 388.098 103.320,383.816 99.102,380.380 94.762 C 379.382 93.502,380.069 92.888,381.500 93.763 M386.321 94.125 C 386.500 94.460,386.563 94.816,386.463 94.916 C 386.190 95.189,385.302 94.546,385.193 93.996 C 385.057 93.302,385.934 93.402,386.321 94.125 M18.933 94.465 C 18.931 94.825,18.673 95.937,18.360 96.935 C 17.264 100.431,16.802 103.960,16.735 109.349 C 16.669 114.574,16.518 115.329,15.606 114.979 C 14.230 114.451,16.146 96.204,17.785 94.230 C 18.312 93.595,18.937 93.723,18.933 94.465 M118.680 95.622 C 119.124 96.326,118.681 96.651,117.116 96.769 C 115.547 96.888,115.373 96.410,116.679 95.571 C 117.702 94.914,118.243 94.928,118.680 95.622 M14.136 100.367 C 13.435 104.170,12.872 110.843,12.932 114.639 C 12.968 116.935,12.317 117.568,11.882 115.659 C 10.722 110.563,11.979 98.826,13.919 96.643 C 14.781 95.673,14.834 96.581,14.136 100.367 M119.431 97.297 C 121.025 98.150,123.008 106.145,123.581 114.020 C 124.612 128.207,119.797 153.878,114.120 164.457 C 113.041 166.467,113.132 166.445,109.250 165.634 C 105.940 164.942,105.247 164.251,106.617 163.011 C 107.165 162.515,107.269 162.515,109.105 163.012 C 112.338 163.887,112.553 162.600,109.348 161.563 C 107.456 160.952,107.417 160.829,108.225 158.027 C 110.467 150.244,111.219 139.667,109.990 133.198 L 109.475 130.488 110.640 129.410 C 113.164 127.073,115.352 114.757,115.364 102.823 C 115.368 98.746,115.482 98.438,117.185 97.899 C 117.783 97.709,118.348 97.432,118.440 97.284 C 118.650 96.944,118.775 96.946,119.431 97.297 M240.058 103.614 C 231.353 104.443,222.057 107.161,220.304 109.390 C 218.540 111.632,220.216 113.387,222.969 112.180 C 230.615 108.829,238.572 107.387,248.470 107.559 C 254.138 107.658,254.612 107.508,253.747 105.892 C 252.696 103.929,246.890 102.963,240.058 103.614 M283.250 108.958 C 281.944 109.259,281.428 109.761,281.428 110.732 C 281.428 111.771,281.652 111.887,285.822 112.996 C 292.303 114.719,300.992 118.720,305.879 122.230 C 308.145 123.857,308.871 124.227,310.022 124.338 C 311.076 124.439,311.462 124.610,311.597 125.035 C 311.818 125.731,312.841 125.644,313.299 124.891 C 313.557 124.466,313.500 124.264,313.008 123.860 C 312.672 123.584,312.300 122.838,312.181 122.203 C 311.441 118.237,295.687 110.051,286.963 109.098 C 286.082 109.002,285.098 108.882,284.778 108.832 C 284.457 108.782,283.770 108.839,283.250 108.958 M238.228 110.733 C 233.889 111.755,229.821 117.077,228.451 123.525 C 226.241 133.920,226.439 142.933,228.989 148.143 L 229.845 149.891 228.979 150.640 C 228.017 151.474,227.841 152.346,228.623 152.407 C 228.904 152.429,230.838 152.477,232.921 152.513 C 235.823 152.563,237.215 152.727,238.878 153.218 C 242.129 154.177,243.655 153.320,241.515 151.738 C 240.353 150.879,240.396 150.634,242.082 148.543 C 248.424 140.672,251.154 122.691,247.129 115.297 C 245.115 111.597,241.794 109.894,238.228 110.733 M217.735 111.717 C 217.456 112.442,218.061 113.758,218.716 113.855 C 219.556 113.979,219.855 112.933,219.245 112.003 C 218.723 111.206,217.984 111.066,217.735 111.717 M239.136 117.595 C 240.747 118.638,241.095 121.626,239.888 124.049 C 237.616 128.607,231.883 127.781,231.907 122.898 C 231.928 118.756,236.146 115.661,239.136 117.595 M287.640 118.701 C 283.486 119.999,280.239 124.198,278.923 129.971 C 275.946 143.038,276.145 151.243,279.536 155.204 C 280.783 156.660,280.800 157.032,279.654 157.684 C 277.597 158.855,278.628 159.179,286.380 159.796 C 293.588 160.370,294.305 160.180,292.920 158.066 C 292.483 157.399,292.524 157.313,294.106 155.540 C 300.759 148.084,302.161 129.119,296.581 122.073 C 294.451 119.384,290.373 117.846,287.640 118.701 M289.245 125.463 C 291.140 126.684,291.195 130.046,289.361 132.515 C 286.703 136.091,281.553 133.686,282.593 129.353 C 283.495 125.592,286.614 123.768,289.245 125.463 M241.171 128.136 C 241.240 128.602,241.114 128.769,240.692 128.769 C 240.007 128.769,239.681 128.097,240.143 127.636 C 240.608 127.171,241.061 127.392,241.171 128.136 M291.291 135.084 C 290.855 135.609,290.308 135.118,290.569 134.437 C 290.722 134.038,290.838 134.014,291.194 134.310 C 291.534 134.592,291.555 134.765,291.291 135.084 M24.813 143.094 C 24.937 143.971,26.074 144.058,26.074 143.190 C 26.074 142.802,25.848 142.575,25.395 142.511 C 24.831 142.431,24.733 142.529,24.813 143.094 M72.175 150.656 C 71.739 150.899,71.437 151.784,71.790 151.784 C 71.857 151.784,72.109 151.860,72.350 151.953 C 72.951 152.183,73.543 151.087,73.043 150.672 C 72.805 150.475,72.508 150.469,72.175 150.656 M193.565 154.515 C 193.241 155.359,193.571 156.009,194.323 156.009 C 194.934 156.009,195.047 155.872,195.047 155.135 C 195.047 154.157,193.888 153.672,193.565 154.515 M194.737 157.172 C 194.278 159.622,197.583 163.238,204.226 167.551 L 204.953 168.023 205.099 176.874 C 205.241 185.468,205.265 185.763,205.935 187.060 C 206.611 188.370,206.615 188.428,206.154 190.015 C 205.577 191.998,205.393 192.076,202.857 191.410 C 195.924 189.590,189.825 189.979,188.091 192.352 C 187.201 193.569,186.724 201.066,187.483 201.905 C 188.790 203.350,189.924 202.402,191.224 198.781 C 192.411 195.473,192.517 195.430,197.313 196.313 C 205.809 197.875,213.564 201.770,227.822 211.635 C 251.436 227.973,260.003 232.240,277.058 236.162 C 290.918 239.350,315.215 237.148,318.856 232.374 C 319.271 231.830,320.491 230.729,321.568 229.928 C 337.179 218.313,346.148 194.345,342.192 174.812 C 341.219 170.011,341.183 170.072,344.938 170.189 C 349.608 170.334,349.206 168.077,344.141 165.703 C 336.039 161.906,326.321 162.773,310.357 168.715 C 303.127 171.406,293.874 174.459,290.607 175.230 C 263.630 181.600,230.612 175.521,201.471 158.818 C 196.083 155.730,195.055 155.479,194.737 157.172 M108.940 167.354 C 112.993 168.187,112.565 169.106,108.214 168.913 C 104.720 168.757,103.464 168.237,104.030 167.180 C 104.393 166.502,104.875 166.519,108.940 167.354 M349.472 169.725 C 348.764 170.432,348.993 171.449,349.859 171.449 C 350.753 171.449,351.318 170.619,350.888 169.937 C 350.443 169.231,350.028 169.169,349.472 169.725 M212.638 172.160 C 214.215 172.951,217.522 174.464,219.988 175.522 C 225.519 177.894,225.486 177.866,224.811 179.680 C 224.527 180.441,224.046 182.681,223.742 184.659 C 222.870 190.316,222.302 190.532,215.586 187.762 C 209.820 185.384,209.182 184.753,209.168 181.414 C 209.164 180.260,209.035 177.611,208.882 175.528 C 208.472 169.948,208.386 170.026,212.638 172.160 M319.900 175.164 C 320.205 175.524,320.695 176.131,320.989 176.513 L 321.523 177.206 322.711 176.456 C 326.213 174.245,335.362 174.573,337.360 176.981 C 338.430 178.270,338.263 188.348,337.085 193.539 C 336.494 196.147,333.576 197.552,326.366 198.698 C 321.333 199.498,320.137 198.962,320.595 196.113 C 321.489 190.560,322.150 179.689,321.643 178.887 C 320.980 177.839,320.376 181.051,319.591 189.803 C 318.634 200.475,318.843 200.098,313.469 200.812 C 303.623 202.118,294.146 202.730,290.083 202.322 L 288.092 202.122 287.052 200.555 L 286.012 198.988 286.333 196.435 C 286.510 195.031,286.808 191.784,286.996 189.221 C 287.418 183.452,287.398 183.488,290.507 182.826 C 294.027 182.076,300.517 180.026,307.356 177.502 C 316.315 174.195,318.703 173.750,319.900 175.164 M229.630 179.179 C 233.992 180.603,238.676 181.803,244.251 182.927 C 250.486 184.183,250.033 183.570,249.340 189.803 L 248.822 194.465 247.572 195.556 C 245.768 197.132,244.280 196.919,231.464 193.257 C 224.797 191.352,224.619 191.214,225.015 188.249 C 225.115 187.502,225.325 185.972,225.481 184.851 C 225.636 183.729,225.768 181.872,225.773 180.723 C 225.782 178.761,225.921 178.408,226.716 178.319 C 226.829 178.306,228.140 178.693,229.630 179.179 M285.643 184.677 C 285.740 184.983,285.689 186.654,285.530 188.392 C 285.371 190.130,285.088 193.387,284.901 195.630 C 284.431 201.282,284.043 201.894,280.937 201.893 C 275.971 201.892,253.901 198.966,252.269 198.093 C 251.997 197.947,251.414 197.213,250.973 196.460 L 250.171 195.092 250.654 191.137 C 250.920 188.961,251.135 186.780,251.133 186.290 C 251.124 184.295,251.289 184.254,257.134 184.804 C 264.889 185.535,281.638 185.175,282.555 184.258 C 282.993 183.819,285.478 184.157,285.643 184.677 M213.182 191.379 C 215.347 192.345,218.471 193.543,225.140 195.962 C 227.214 196.715,227.969 199.064,226.975 201.677 C 226.559 202.773,226.521 202.762,222.344 200.268 C 220.310 199.054,216.549 197.017,213.987 195.741 C 208.258 192.889,208.085 192.687,209.795 190.852 C 210.505 190.090,210.184 190.040,213.182 191.379 M236.088 199.118 C 238.833 199.834,242.651 200.756,244.574 201.166 C 249.663 202.252,249.816 202.319,250.701 203.830 L 251.475 205.150 250.545 210.587 C 249.545 216.432,249.355 217.043,248.537 217.043 C 247.753 217.043,231.826 206.760,229.238 204.582 C 227.541 203.154,228.863 198.055,230.990 197.827 C 231.050 197.820,233.344 198.401,236.088 199.118 M335.480 199.288 C 336.524 200.977,326.760 219.082,324.805 219.082 C 324.286 219.082,324.710 205.018,325.261 203.964 C 326.377 201.830,334.697 198.022,335.480 199.288 M261.554 204.196 C 264.873 204.660,268.966 205.198,270.648 205.389 C 276.242 206.026,276.892 206.841,276.473 212.697 C 276.200 216.513,275.138 225.761,274.883 226.542 C 274.237 228.518,265.762 226.186,256.007 221.349 C 250.684 218.710,250.577 218.590,251.231 216.005 C 251.722 214.064,252.440 210.140,252.747 207.720 C 253.022 205.547,253.337 204.778,254.270 204.007 C 255.233 203.212,254.369 203.189,261.554 204.196 M322.913 203.900 C 323.410 204.450,323.404 215.294,322.903 220.248 C 322.670 222.561,319.853 225.419,316.920 226.319 C 311.980 227.835,307.493 228.369,304.299 227.823 C 300.860 227.234,301.061 227.796,301.630 220.362 C 301.899 216.854,302.117 212.962,302.116 211.714 C 302.112 209.506,302.145 209.400,303.304 207.865 C 304.718 205.992,304.206 206.176,310.561 205.256 C 313.365 204.850,316.905 204.270,318.427 203.966 C 322.018 203.250,322.321 203.246,322.913 203.900 M187.819 204.121 C 187.406 204.534,187.640 205.098,188.222 205.098 C 188.630 205.098,188.796 204.940,188.732 204.613 C 188.628 204.076,188.131 203.809,187.819 204.121 M298.369 206.884 C 300.721 207.800,300.849 208.970,299.892 220.830 C 299.360 227.408,299.277 227.627,297.097 228.113 C 293.047 229.016,277.936 228.534,276.870 227.468 C 276.511 227.109,276.553 226.289,277.186 221.375 C 277.588 218.252,278.005 214.030,278.114 211.993 L 278.312 208.290 279.360 207.350 L 280.408 206.409 289.002 206.496 C 293.995 206.547,297.920 206.709,298.369 206.884 M160.626 236.424 C 163.163 238.338,163.607 238.893,162.600 238.893 C 161.429 238.893,157.004 235.228,157.534 234.697 C 157.852 234.379,158.088 234.510,160.626 236.424 M369.312 272.542 C 369.649 273.566,368.268 274.641,365.222 275.727 C 359.964 277.600,359.788 276.598,364.907 273.934 C 368.267 272.185,369.107 271.920,369.312 272.542 " stroke="none" fill="#d12016" fill-rule="evenodd"></path></g></svg>