<!DOCTYPE svg PUBLIC "-//W3C//DTD SVG 20010904//EN" "http://www.w3.org/TR/2001/REC-SVG-20010904/DTD/svg10.dtd">
<svg version="1.0" xmlns="http://www.w3.org/2000/svg" style="width: 20px" viewBox="0 0 2400 2400" preserveAspectRatio="xMidYMid meet">
<g id="layer101" fill="currentColor" stroke="none">
 <path d="M722 2041 c-59 -15 -108 -57 -136 -114 -33 -67 -46 -171 -46 -375 0 -134 -3 -160 -21 -203 -21 -48 -68 -89 -101 -89 -32 0 -48 -34 -48 -103 0 -57 3 -68 22 -81 12 -9 30 -16 40 -16 29 0 84 -64 96 -111 6 -24 13 -123 15 -219 5 -199 21 -276 69 -334 37 -45 74 -65 144 -76 62 -10 152 1 165 21 12 19 11 116 -1 140 -7 12 -21 19 -40 19 -42 0 -77 16 -91 42 -9 15 -15 91 -20 218 -3 107 -12 212 -18 232 -18 57 -71 119 -124 146 l-47 25 49 22 c26 13 60 38 74 57 52 67 59 107 66 338 8 260 15 280 93 280 52 0 68 20 68 89 0 82 -11 93 -101 97 -41 2 -89 -1 -107 -5z"/>
 <path d="M1605 2044 c-32 -9 -45 -34 -45 -92 0 -72 12 -92 56 -92 88 0 97 -22 104 -265 6 -168 10 -209 28 -259 26 -70 63 -121 108 -148 42 -25 42 -32 3 -49 -47 -19 -87 -56 -111 -103 -20 -37 -23 -62 -28 -256 -4 -141 -10 -223 -18 -237 -16 -29 -43 -43 -84 -43 -19 0 -39 -5 -46 -12 -14 -14 -16 -126 -3 -147 20 -32 181 -32 243 0 51 26 89 73 109 139 17 54 22 101 26 275 4 153 9 218 20 238 15 30 67 67 96 67 9 0 26 9 37 20 18 18 20 31 18 88 l-3 67 -47 22 c-91 44 -118 114 -118 312 0 280 -30 387 -122 444 -38 24 -59 29 -125 32 -43 2 -87 2 -98 -1z"/>
 </g>

</svg>