<!DOCTYPE svg PUBLIC "-//W3C//DTD SVG 20010904//EN" "http://www.w3.org/TR/2001/REC-SVG-20010904/DTD/svg10.dtd">
<svg version="1.0" xmlns="http://www.w3.org/2000/svg" style="width: 20px" viewBox="0 0 5120 5120" preserveAspectRatio="xMidYMid meet">
<g id="layer101">
 <path fill="currentColor" d="M2055 5113 c-648 -56 -1222 -373 -1610 -889 -499 -662 -584 -1577 -215 -2322 331 -669 951 -1118 1695 -1228 162 -23 456 -23 620 1 381 55 724 198 1035 429 122 90 346 314 436 436 299 401 446 846 447 1345 0 376 -81 712 -250 1035 -138 264 -354 528 -583 711 -329 263 -759 437 -1184 478 -102 10 -299 12 -391 4z m250 -1114 c59 -22 116 -66 156 -122 l29 -40 0 81 0 82 80 0 80 0 0 -520 0 -520 -80 0 -80 0 0 299 c0 164 -5 322 -10 351 -13 68 -53 157 -88 194 -83 89 -266 104 -345 29 -60 -58 -61 -62 -65 -485 l-4 -388 -79 0 -79 0 0 414 c0 284 4 424 11 447 56 165 281 249 474 178z m1037 5 c53 -16 111 -51 179 -106 53 -44 59 -45 59 -18 0 35 27 88 55 106 38 25 96 33 160 22 l55 -10 0 -59 0 -59 -44 0 c-77 0 -76 6 -76 -385 l0 -341 -26 -52 c-55 -111 -154 -161 -334 -169 -170 -8 -276 23 -356 103 -43 42 -76 115 -88 192 l-6 42 79 0 78 0 6 -36 c10 -62 52 -120 104 -145 40 -19 64 -23 139 -23 79 0 99 4 149 28 46 23 61 36 76 70 21 46 24 113 8 150 -18 38 -76 55 -252 76 -184 22 -246 38 -305 77 -143 96 -175 306 -68 446 72 94 260 137 408 91z m-1702 -89 l0 -85 -365 0 -365 0 0 -630 0 -630 -95 0 -95 0 0 715 0 715 460 0 460 0 0 -85z m1718 -1338 c102 -35 175 -81 252 -157 120 -121 179 -252 188 -417 6 -132 -8 -205 -63 -318 -112 -232 -323 -364 -580 -365 -112 0 -186 18 -295 72 -199 100 -333 306 -347 533 -6 115 14 212 67 324 32 67 57 101 123 166 91 92 179 143 301 176 100 27 252 21 354 -14z"/>
 <path fill="currentColor" d="M3171 3880 c-39 -9 -77 -36 -105 -73 -29 -39 -29 -145 0 -184 46 -62 91 -77 342 -118 52 -8 107 -22 123 -30 l29 -16 0 116 c0 137 -9 165 -74 222 -76 67 -224 106 -315 83z"/>
 <path fill="currentColor" d="M4390 1309 c-160 -17 -273 -71 -390 -189 -97 -96 -147 -184 -175 -305 -21 -89 -21 -241 0 -320 60 -228 229 -401 460 -471 92 -28 267 -26 365 4 110 34 196 86 276 166 80 80 132 166 166 276 30 97 32 272 4 364 -95 316 -381 508 -706 475z"/>
 </g>

</svg>