<!DOCTYPE svg PUBLIC "-//W3C//DTD SVG 20010904//EN" "http://www.w3.org/TR/2001/REC-SVG-20010904/DTD/svg10.dtd">
<svg version="1.0" xmlns="http://www.w3.org/2000/svg" style="width: 50px; filter: grayscale(100%)" data-icon="xsplit" viewBox="0 0 9220 11790" preserveAspectRatio="xMidYMid meet">
<g id="layer101" fill="#000000" stroke="none">
 <path d="M4720 10475 l0 -1315 190 0 190 0 0 157 0 158 38 -64 c53 -92 154 -191 232 -229 83 -41 185 -56 289 -43 144 19 239 66 341 170 87 89 130 158 176 279 57 152 75 262 81 493 6 229 -5 358 -42 503 -51 202 -122 342 -225 446 -112 112 -229 154 -414 149 -103 -4 -117 -7 -181 -38 -50 -25 -91 -56 -142 -109 l-73 -74 0 416 0 416 -230 0 -230 0 0 -1315z m855 371 c159 -67 245 -315 245 -706 0 -374 -71 -597 -214 -673 -63 -33 -166 -31 -228 5 -90 53 -154 152 -178 274 -7 35 -14 216 -17 440 -6 375 -5 381 17 457 41 140 139 217 272 217 38 0 84 -6 103 -14z"/>
 <path d="M3431 11189 c-316 -37 -535 -187 -673 -464 -35 -69 -79 -189 -92 -252 -7 -31 -6 -31 46 -46 135 -39 345 -97 351 -97 4 0 7 8 7 18 0 30 46 158 81 222 38 71 135 167 203 198 105 50 249 66 368 41 244 -52 372 -300 266 -519 -52 -106 -163 -178 -463 -295 -93 -36 -235 -98 -314 -137 -126 -62 -153 -79 -215 -142 -156 -155 -226 -321 -226 -538 0 -154 40 -292 121 -413 72 -107 171 -194 282 -249 146 -71 192 -80 412 -81 169 0 199 3 270 23 226 65 382 196 485 407 39 81 83 205 76 212 -5 6 -368 133 -377 133 -4 0 -13 -17 -20 -37 -49 -153 -155 -290 -262 -339 -57 -27 -71 -29 -182 -29 -111 0 -124 2 -176 28 -145 71 -220 236 -176 388 38 129 135 194 525 350 387 155 534 254 638 431 66 113 87 195 92 353 5 175 -15 272 -85 409 -64 124 -200 262 -318 323 -179 93 -410 129 -644 102z"/>
 <path d="M8784 11190 c-187 -26 -302 -100 -365 -234 -65 -139 -79 -309 -79 -973 l0 -523 -125 0 -125 0 0 -150 0 -150 125 0 125 0 0 -249 0 -250 43 -6 c45 -6 354 -35 375 -35 9 0 12 61 12 270 l0 270 185 0 185 0 0 150 0 150 -186 0 -185 0 3 603 c3 555 4 605 21 642 47 104 108 131 295 129 l132 -2 -2 167 -3 166 -75 12 c-107 17 -285 23 -356 13z"/>
 <path d="M6630 9835 l0 -1335 195 0 195 0 0 1335 0 1335 -195 0 -195 0 0 -1335z"/>
 <path d="M7420 10165 l0 -1005 215 0 215 0 0 1005 0 1005 -215 0 -215 0 0 -1005z"/>
 <path d="M4 11123 c4 -9 229 -382 501 -830 272 -447 495 -818 495 -823 0 -6 -193 -353 -430 -771 -237 -418 -430 -762 -430 -764 0 -3 152 -5 338 -5 l337 0 290 525 c160 288 293 524 296 525 4 0 145 -236 314 -525 l308 -525 274 0 275 0 -14 23 c-65 99 -871 1434 -871 1442 0 6 216 393 481 860 264 468 484 858 487 868 7 16 -13 17 -331 17 l-339 0 -343 -612 c-188 -337 -346 -619 -350 -626 -6 -9 -129 191 -378 612 l-369 626 -274 0 c-251 0 -273 -1 -267 -17z"/>
 <path d="M7420 8710 l0 -210 215 0 215 0 0 210 0 210 -215 0 -215 0 0 -210z"/>
 <path d="M6600 8185 c0 -15 34 -347 76 -737 42 -390 73 -712 71 -715 -3 -2 -1510 -189 -3349 -414 -1838 -225 -3353 -412 -3366 -414 l-22 -5 0 -2950 0 -2950 33 0 c17 1 2089 236 4602 523 l4570 523 3 2977 c1 1637 -1 2977 -5 2977 -5 0 -251 -25 -548 -54 -445 -45 -543 -52 -555 -42 -8 7 -343 298 -745 646 -401 348 -738 640 -747 648 -17 14 -18 13 -18 -13z m1620 -4258 l0 -2042 -3632 -418 c-1998 -230 -3639 -418 -3645 -418 -10 1 -13 414 -13 2031 0 1117 1 2030 3 2031 4 1 7251 857 7270 858 16 1 17 -103 17 -2042z"/>
 </g>
<g id="layer102" fill="#0095de" stroke="none">
 <path d="M4 11123 c4 -9 229 -382 501 -830 272 -447 495 -818 495 -823 0 -6 -193 -353 -430 -771 -237 -418 -430 -762 -430 -764 0 -3 152 -5 338 -5 l337 0 290 525 c160 288 293 524 296 525 4 0 145 -236 314 -525 l308 -525 274 0 275 0 -14 23 c-65 99 -871 1434 -871 1442 0 6 216 393 481 860 264 468 484 858 487 868 7 16 -13 17 -331 17 l-339 0 -343 -612 c-188 -337 -346 -619 -350 -626 -6 -9 -129 191 -378 612 l-369 626 -274 0 c-251 0 -273 -1 -267 -17z"/>
 <path d="M6600 8185 c0 -15 34 -347 76 -737 42 -390 73 -712 71 -715 -3 -2 -1510 -189 -3349 -414 -1838 -225 -3353 -412 -3366 -414 l-22 -5 0 -2950 0 -2950 33 0 c17 1 2089 236 4602 523 l4570 523 3 2977 c1 1637 -1 2977 -5 2977 -5 0 -251 -25 -548 -54 -445 -45 -543 -52 -555 -42 -8 7 -343 298 -745 646 -401 348 -738 640 -747 648 -17 14 -18 13 -18 -13z m1620 -4258 l0 -2042 -3632 -418 c-1998 -230 -3639 -418 -3645 -418 -10 1 -13 414 -13 2031 0 1117 1 2030 3 2031 4 1 7251 857 7270 858 16 1 17 -103 17 -2042z"/>
 </g>

</svg>