<?xml version="1.0" standalone="no"?>
<!DOCTYPE svg PUBLIC "-//W3C//DTD SVG 20010904//EN"
 "http://www.w3.org/TR/2001/REC-SVG-20010904/DTD/svg10.dtd">
<svg version="1.0" xmlns="http://www.w3.org/2000/svg"
 class="svg-inline--fa fa-w-14" viewBox="0 0 128.000000 128.000000"
 preserveAspectRatio="xMidYMid meet">
<metadata>
Created by potrace 1.15, written by Peter Selinger 2001-2017
</metadata>
<g transform="translate(0.000000,128.000000) scale(0.100000,-0.100000)"
fill="#000000" stroke="none">
<path d="M565 1091 c-58 -14 -123 -61 -147 -105 -6 -10 -14 -60 -18 -111 -6
-68 -16 -110 -36 -156 l-29 -64 -5 82 c-7 101 -29 133 -93 133 -35 0 -47 -6
-82 -43 -57 -60 -88 -128 -93 -207 -6 -104 24 -156 147 -254 83 -66 101 -76
145 -76 22 0 56 -13 92 -34 31 -19 78 -40 104 -46 65 -16 183 2 270 40 38 17
82 30 98 30 19 0 64 23 134 70 157 103 181 139 160 240 -15 73 -85 212 -128
255 -60 61 -137 44 -181 -38 -8 -16 -14 -9 -35 40 -14 32 -33 78 -42 103 -19
55 -75 116 -121 136 -36 15 -90 17 -140 5z m96 -53 c46 -15 106 -64 125 -99
14 -27 15 -40 14 -108 -1 -14 -26 -70 -57 -125 -63 -111 -64 -118 -50 -297 11
-141 1 -153 -105 -123 -15 4 -16 12 -10 52 9 63 9 308 -1 353 -6 27 -14 38
-40 47 -42 16 -66 50 -79 115 -21 100 11 159 102 185 48 14 62 14 101 0z"/>
<path d="M544 1008 c-33 -11 -44 -35 -44 -100 0 -39 39 -74 98 -87 47 -11 47
-11 84 29 34 38 35 42 25 72 -7 17 -26 46 -43 65 -33 35 -61 40 -120 21z"/>
</g>
</svg>
